<mxfile host="app.diagrams.net" modified="2020-09-22T10:41:48.142Z" agent="5.0 (Windows NT 10.0; Win64; x64) AppleWebKit/537.36 (KHTML, like Gecko) Chrome/85.0.4183.102 Safari/537.36 Edg/85.0.564.51" etag="N8TatY41WBIU6k3y_a8L" version="13.7.3" type="github">
  <diagram id="shUDwsKFDdsXacW1vGoj" name="Page-1">
    <mxGraphModel dx="1038" dy="548" grid="1" gridSize="10" guides="1" tooltips="1" connect="1" arrows="1" fold="1" page="1" pageScale="1" pageWidth="827" pageHeight="1169" math="0" shadow="0">
      <root>
        <mxCell id="0" />
        <mxCell id="1" parent="0" />
        <mxCell id="ImCiJTd56db0JIZPay8f-3" value="" style="endArrow=none;html=1;" parent="1" edge="1">
          <mxGeometry width="50" height="50" relative="1" as="geometry">
            <mxPoint x="90" y="490" as="sourcePoint" />
            <mxPoint x="760" y="490" as="targetPoint" />
          </mxGeometry>
        </mxCell>
        <mxCell id="ImCiJTd56db0JIZPay8f-4" value="TCLHOME&lt;br&gt;&lt;br&gt;（新加坡）" style="rounded=0;whiteSpace=wrap;html=1;fillColor=#ffe6cc;strokeColor=#d79b00;shadow=1;" parent="1" vertex="1">
          <mxGeometry x="90" y="550" width="120" height="60" as="geometry" />
        </mxCell>
        <mxCell id="ImCiJTd56db0JIZPay8f-5" value="官网&lt;br&gt;&lt;br&gt;（新加坡）" style="rounded=0;whiteSpace=wrap;html=1;fillColor=#ffe6cc;strokeColor=#d79b00;shadow=1;" parent="1" vertex="1">
          <mxGeometry x="235" y="550" width="120" height="60" as="geometry" />
        </mxCell>
        <mxCell id="ImCiJTd56db0JIZPay8f-6" value="雷鸟TV端&lt;br&gt;&lt;br&gt;（各个国家）" style="rounded=0;whiteSpace=wrap;html=1;fillColor=#ffe6cc;strokeColor=#d79b00;shadow=1;" parent="1" vertex="1">
          <mxGeometry x="384" y="550" width="120" height="60" as="geometry" />
        </mxCell>
        <mxCell id="ImCiJTd56db0JIZPay8f-8" value="源数据层" style="text;html=1;strokeColor=none;fillColor=none;align=center;verticalAlign=middle;whiteSpace=wrap;rounded=0;fontStyle=1;fontSize=16;" parent="1" vertex="1">
          <mxGeometry x="20" y="565" width="60" height="20" as="geometry" />
        </mxCell>
        <mxCell id="ImCiJTd56db0JIZPay8f-11" value="&lt;span style=&quot;font-size: 12px&quot;&gt;CRM&lt;br&gt;（新加坡）&lt;br&gt;&lt;/span&gt;" style="shape=cylinder3;whiteSpace=wrap;html=1;boundedLbl=1;backgroundOutline=1;size=15;fontSize=16;fillColor=#ffe6cc;strokeColor=#d79b00;shadow=1;" parent="1" vertex="1">
          <mxGeometry x="531" y="540" width="60" height="80" as="geometry" />
        </mxCell>
        <mxCell id="ImCiJTd56db0JIZPay8f-17" value="" style="shape=singleArrow;direction=north;whiteSpace=wrap;html=1;fontSize=16;fillColor=#dae8fc;strokeColor=#6c8ebf;" parent="1" vertex="1">
          <mxGeometry x="354" y="485" width="60" height="50" as="geometry" />
        </mxCell>
        <mxCell id="ImCiJTd56db0JIZPay8f-18" value="" style="shape=datastore;whiteSpace=wrap;html=1;fontSize=16;fillColor=#ffe6cc;strokeColor=#d79b00;shadow=1;" parent="1" vertex="1">
          <mxGeometry x="220" y="340" width="360" height="130" as="geometry" />
        </mxCell>
        <mxCell id="ImCiJTd56db0JIZPay8f-19" value="数据仓库层" style="text;html=1;strokeColor=none;fillColor=none;align=center;verticalAlign=middle;whiteSpace=wrap;rounded=0;fontStyle=1;fontSize=16;" parent="1" vertex="1">
          <mxGeometry x="10" y="390" width="60" height="20" as="geometry" />
        </mxCell>
        <mxCell id="ImCiJTd56db0JIZPay8f-22" value="华润通 （新加坡）" style="rounded=0;whiteSpace=wrap;html=1;fontSize=16;fillColor=#1ba1e2;strokeColor=#006EAF;fontColor=#ffffff;shadow=1;" parent="1" vertex="1">
          <mxGeometry x="620" y="545" width="110" height="70" as="geometry" />
        </mxCell>
        <mxCell id="ImCiJTd56db0JIZPay8f-25" value="" style="rounded=0;whiteSpace=wrap;html=1;fontSize=16;fillColor=#dae8fc;strokeColor=#6c8ebf;align=center;shadow=1;" parent="1" vertex="1">
          <mxGeometry x="201" y="170" width="399" height="100" as="geometry" />
        </mxCell>
        <mxCell id="ImCiJTd56db0JIZPay8f-27" value="1" style="text;html=1;strokeColor=#666666;align=center;verticalAlign=middle;whiteSpace=wrap;rounded=1;fontSize=16;fillColor=#f5f5f5;fontColor=#333333;" parent="1" vertex="1">
          <mxGeometry x="120" y="620" width="30" height="20" as="geometry" />
        </mxCell>
        <mxCell id="ImCiJTd56db0JIZPay8f-28" value="2" style="text;html=1;strokeColor=#666666;align=center;verticalAlign=middle;whiteSpace=wrap;rounded=1;fontSize=16;fillColor=#f5f5f5;fontColor=#333333;" parent="1" vertex="1">
          <mxGeometry x="270" y="620" width="30" height="20" as="geometry" />
        </mxCell>
        <mxCell id="ImCiJTd56db0JIZPay8f-29" value="3" style="text;html=1;strokeColor=#666666;align=center;verticalAlign=middle;whiteSpace=wrap;rounded=1;fontSize=16;fillColor=#f5f5f5;fontColor=#333333;" parent="1" vertex="1">
          <mxGeometry x="430" y="620" width="30" height="20" as="geometry" />
        </mxCell>
        <mxCell id="ImCiJTd56db0JIZPay8f-30" value="4" style="text;html=1;strokeColor=#666666;align=center;verticalAlign=middle;whiteSpace=wrap;rounded=1;fontSize=16;fillColor=#f5f5f5;fontColor=#333333;" parent="1" vertex="1">
          <mxGeometry x="546" y="625" width="30" height="20" as="geometry" />
        </mxCell>
        <mxCell id="ImCiJTd56db0JIZPay8f-31" value="应用层" style="text;html=1;strokeColor=none;fillColor=none;align=center;verticalAlign=middle;whiteSpace=wrap;rounded=0;fontStyle=1;fontSize=16;" parent="1" vertex="1">
          <mxGeometry x="10" y="230" width="60" height="20" as="geometry" />
        </mxCell>
        <mxCell id="ImCiJTd56db0JIZPay8f-34" value="" style="endArrow=none;html=1;" parent="1" edge="1">
          <mxGeometry width="50" height="50" relative="1" as="geometry">
            <mxPoint x="420" y="320" as="sourcePoint" />
            <mxPoint x="760" y="320" as="targetPoint" />
          </mxGeometry>
        </mxCell>
        <mxCell id="ImCiJTd56db0JIZPay8f-35" value="ETL" style="text;html=1;strokeColor=none;fillColor=none;align=center;verticalAlign=middle;whiteSpace=wrap;rounded=0;fontStyle=1;fontSize=16;" parent="1" vertex="1">
          <mxGeometry x="400" y="500" width="60" height="20" as="geometry" />
        </mxCell>
        <mxCell id="ImCiJTd56db0JIZPay8f-47" value="" style="endArrow=none;html=1;" parent="1" edge="1">
          <mxGeometry width="50" height="50" relative="1" as="geometry">
            <mxPoint x="80" y="320" as="sourcePoint" />
            <mxPoint x="340" y="318" as="targetPoint" />
          </mxGeometry>
        </mxCell>
        <mxCell id="ImCiJTd56db0JIZPay8f-49" value="用户画像" style="text;html=1;strokeColor=#006EAF;fillColor=#1ba1e2;align=center;verticalAlign=middle;whiteSpace=wrap;rounded=0;fontSize=17;fontColor=#ffffff;shadow=1;" parent="1" vertex="1">
          <mxGeometry x="221" y="190" width="90" height="20" as="geometry" />
        </mxCell>
        <mxCell id="ImCiJTd56db0JIZPay8f-50" value="用户偏好" style="text;html=1;strokeColor=#B09500;fillColor=#e3c800;align=center;verticalAlign=middle;whiteSpace=wrap;rounded=0;fontSize=16;fontColor=#ffffff;shadow=1;" parent="1" vertex="1">
          <mxGeometry x="338" y="190" width="90" height="20" as="geometry" />
        </mxCell>
        <mxCell id="ImCiJTd56db0JIZPay8f-51" value="用户漏斗" style="text;html=1;strokeColor=#C73500;fillColor=#fa6800;align=center;verticalAlign=middle;whiteSpace=wrap;rounded=0;fontSize=16;fontColor=#ffffff;shadow=1;" parent="1" vertex="1">
          <mxGeometry x="467" y="190" width="90" height="20" as="geometry" />
        </mxCell>
        <mxCell id="ImCiJTd56db0JIZPay8f-52" style="edgeStyle=orthogonalEdgeStyle;rounded=0;orthogonalLoop=1;jettySize=auto;html=1;exitX=0.5;exitY=1;exitDx=0;exitDy=0;fontSize=17;fontColor=#000000;" parent="1" source="ImCiJTd56db0JIZPay8f-51" target="ImCiJTd56db0JIZPay8f-51" edge="1">
          <mxGeometry relative="1" as="geometry" />
        </mxCell>
        <mxCell id="ImCiJTd56db0JIZPay8f-56" value="1" style="text;html=1;strokeColor=#666666;align=center;verticalAlign=middle;whiteSpace=wrap;rounded=1;fontSize=16;fillColor=#f5f5f5;fontColor=#333333;" parent="1" vertex="1">
          <mxGeometry x="790" y="190" width="30" height="20" as="geometry" />
        </mxCell>
        <mxCell id="ImCiJTd56db0JIZPay8f-57" value="TCLHOME应用埋点数据，存储于新加坡" style="text;html=1;strokeColor=none;fillColor=none;align=center;verticalAlign=middle;whiteSpace=wrap;rounded=0;fontSize=10;fontColor=#000000;" parent="1" vertex="1">
          <mxGeometry x="850" y="180" width="140" height="40" as="geometry" />
        </mxCell>
        <mxCell id="ImCiJTd56db0JIZPay8f-58" value="用户分析平台" style="text;html=1;strokeColor=none;fillColor=none;align=center;verticalAlign=middle;whiteSpace=wrap;rounded=0;fontSize=16;fontColor=#000000;fontStyle=1;" parent="1" vertex="1">
          <mxGeometry x="260" y="130" width="170" height="20" as="geometry" />
        </mxCell>
        <mxCell id="ImCiJTd56db0JIZPay8f-60" value="····" style="text;html=1;strokeColor=none;fillColor=none;align=center;verticalAlign=middle;whiteSpace=wrap;rounded=0;fontSize=17;fontColor=#000000;" parent="1" vertex="1">
          <mxGeometry x="482" y="234" width="40" height="20" as="geometry" />
        </mxCell>
        <mxCell id="ImCiJTd56db0JIZPay8f-63" value="2" style="text;html=1;strokeColor=#666666;align=center;verticalAlign=middle;whiteSpace=wrap;rounded=1;fontSize=16;fillColor=#f5f5f5;fontColor=#333333;" parent="1" vertex="1">
          <mxGeometry x="790" y="260" width="30" height="20" as="geometry" />
        </mxCell>
        <mxCell id="ImCiJTd56db0JIZPay8f-64" value="OBG,TCL官网应用埋点数据，存储于新加坡" style="text;html=1;strokeColor=none;fillColor=none;align=center;verticalAlign=middle;whiteSpace=wrap;rounded=0;fontSize=10;fontColor=#000000;" parent="1" vertex="1">
          <mxGeometry x="850" y="250" width="140" height="40" as="geometry" />
        </mxCell>
        <mxCell id="ImCiJTd56db0JIZPay8f-65" value="3" style="text;html=1;strokeColor=#666666;align=center;verticalAlign=middle;whiteSpace=wrap;rounded=1;fontSize=16;fillColor=#f5f5f5;fontColor=#333333;" parent="1" vertex="1">
          <mxGeometry x="790" y="330" width="30" height="20" as="geometry" />
        </mxCell>
        <mxCell id="ImCiJTd56db0JIZPay8f-66" value="雷鸟TV端的数据目前在做合规化，数据会分离到各个国家" style="text;html=1;strokeColor=none;fillColor=none;align=center;verticalAlign=middle;whiteSpace=wrap;rounded=0;fontSize=10;fontColor=#000000;" parent="1" vertex="1">
          <mxGeometry x="850" y="320" width="140" height="40" as="geometry" />
        </mxCell>
        <mxCell id="ImCiJTd56db0JIZPay8f-67" value="4" style="text;html=1;strokeColor=#666666;align=center;verticalAlign=middle;whiteSpace=wrap;rounded=1;fontSize=16;fillColor=#f5f5f5;fontColor=#333333;" parent="1" vertex="1">
          <mxGeometry x="790" y="390" width="30" height="20" as="geometry" />
        </mxCell>
        <mxCell id="ImCiJTd56db0JIZPay8f-68" value="CRM数据、存储新加坡" style="text;html=1;strokeColor=none;fillColor=none;align=center;verticalAlign=middle;whiteSpace=wrap;rounded=0;fontSize=10;fontColor=#000000;" parent="1" vertex="1">
          <mxGeometry x="850" y="380" width="140" height="40" as="geometry" />
        </mxCell>
        <mxCell id="ImCiJTd56db0JIZPay8f-69" value="5" style="text;html=1;strokeColor=#666666;align=center;verticalAlign=middle;whiteSpace=wrap;rounded=1;fontSize=16;fillColor=#f5f5f5;fontColor=#333333;" parent="1" vertex="1">
          <mxGeometry x="790" y="450" width="30" height="20" as="geometry" />
        </mxCell>
        <mxCell id="ImCiJTd56db0JIZPay8f-72" value="华润通用户会员数据，存储于新加坡" style="text;html=1;strokeColor=none;fillColor=none;align=center;verticalAlign=middle;whiteSpace=wrap;rounded=0;fontSize=10;fontColor=#000000;" parent="1" vertex="1">
          <mxGeometry x="836" y="440" width="140" height="40" as="geometry" />
        </mxCell>
        <mxCell id="ImCiJTd56db0JIZPay8f-73" value="6" style="text;html=1;strokeColor=#666666;align=center;verticalAlign=middle;whiteSpace=wrap;rounded=1;fontSize=16;fillColor=#f5f5f5;fontColor=#333333;" parent="1" vertex="1">
          <mxGeometry x="175" y="380" width="30" height="20" as="geometry" />
        </mxCell>
        <mxCell id="ImCiJTd56db0JIZPay8f-74" value="6" style="text;html=1;strokeColor=#666666;align=center;verticalAlign=middle;whiteSpace=wrap;rounded=1;fontSize=16;fillColor=#f5f5f5;fontColor=#333333;" parent="1" vertex="1">
          <mxGeometry x="790" y="505" width="30" height="20" as="geometry" />
        </mxCell>
        <mxCell id="ImCiJTd56db0JIZPay8f-77" value="&lt;font style=&quot;font-size: 11px&quot;&gt;数据仓库自建，租用AWS的redshift，&lt;span style=&quot;color: rgb(35 , 47 , 62) ; text-align: left ; background-color: rgb(255 , 255 , 255) ; font-size: 11px&quot;&gt;Amazon Redshift 是一种运行快速、完全托管的 PB 级数据仓库。该数据仓库基于列式存储，多节点部署。&lt;/span&gt;&lt;/font&gt;" style="text;html=1;strokeColor=none;fillColor=none;align=center;verticalAlign=middle;whiteSpace=wrap;rounded=0;fontSize=10;fontColor=#000000;" parent="1" vertex="1">
          <mxGeometry x="846" y="495" width="250" height="60" as="geometry" />
        </mxCell>
        <mxCell id="ImCiJTd56db0JIZPay8f-78" value="数据仓库（AWS&amp;nbsp; REDSHIFT）" style="text;html=1;strokeColor=none;fillColor=none;align=center;verticalAlign=middle;whiteSpace=wrap;rounded=0;fontSize=16;fontColor=#000000;fontStyle=1;" parent="1" vertex="1">
          <mxGeometry x="283.5" y="344" width="225" height="20" as="geometry" />
        </mxCell>
        <mxCell id="ImCiJTd56db0JIZPay8f-79" value="列式存储" style="text;html=1;strokeColor=#6c8ebf;fillColor=#dae8fc;align=center;verticalAlign=middle;whiteSpace=wrap;rounded=0;fontSize=12;gradientColor=#7ea6e0;shadow=1;" parent="1" vertex="1">
          <mxGeometry x="240" y="390" width="90" height="20" as="geometry" />
        </mxCell>
        <mxCell id="ImCiJTd56db0JIZPay8f-80" value="多节点部署" style="text;html=1;strokeColor=#b85450;fillColor=#f8cecc;align=center;verticalAlign=middle;whiteSpace=wrap;rounded=0;fontSize=11;gradientColor=#ea6b66;shadow=1;" parent="1" vertex="1">
          <mxGeometry x="351" y="390" width="90" height="20" as="geometry" />
        </mxCell>
        <mxCell id="ImCiJTd56db0JIZPay8f-81" value="日志管理" style="text;html=1;strokeColor=#996185;fillColor=#e6d0de;align=center;verticalAlign=middle;whiteSpace=wrap;rounded=0;fontSize=11;gradientColor=#d5739d;shadow=1;" parent="1" vertex="1">
          <mxGeometry x="460" y="390" width="90" height="20" as="geometry" />
        </mxCell>
        <mxCell id="ImCiJTd56db0JIZPay8f-82" value="网络隔离" style="text;html=1;strokeColor=#82b366;fillColor=#d5e8d4;align=center;verticalAlign=middle;whiteSpace=wrap;rounded=0;fontSize=11;gradientColor=#97d077;shadow=1;" parent="1" vertex="1">
          <mxGeometry x="240" y="430" width="90" height="20" as="geometry" />
        </mxCell>
        <mxCell id="ImCiJTd56db0JIZPay8f-83" value="资源扩展" style="text;html=1;strokeColor=#d79b00;fillColor=#ffcd28;align=center;verticalAlign=middle;whiteSpace=wrap;rounded=0;fontSize=11;gradientColor=#ffa500;shadow=1;" parent="1" vertex="1">
          <mxGeometry x="355" y="430" width="90" height="20" as="geometry" />
        </mxCell>
        <mxCell id="ImCiJTd56db0JIZPay8f-84" value="REDSHIFT SQL" style="text;html=1;strokeColor=#36393d;fillColor=#ffcc99;align=center;verticalAlign=middle;whiteSpace=wrap;rounded=0;fontSize=11;shadow=1;" parent="1" vertex="1">
          <mxGeometry x="460" y="430" width="90" height="20" as="geometry" />
        </mxCell>
        <mxCell id="ImCiJTd56db0JIZPay8f-85" value="自助分析" style="text;html=1;strokeColor=#006EAF;fillColor=#1ba1e2;align=center;verticalAlign=middle;whiteSpace=wrap;rounded=0;fontSize=17;fontColor=#ffffff;shadow=1;" parent="1" vertex="1">
          <mxGeometry x="221" y="234" width="90" height="20" as="geometry" />
        </mxCell>
        <mxCell id="ImCiJTd56db0JIZPay8f-86" value="数据报表" style="text;html=1;strokeColor=#006EAF;fillColor=#1ba1e2;align=center;verticalAlign=middle;whiteSpace=wrap;rounded=0;fontSize=17;fontColor=#ffffff;shadow=1;" parent="1" vertex="1">
          <mxGeometry x="346" y="234" width="90" height="20" as="geometry" />
        </mxCell>
        <mxCell id="ImCiJTd56db0JIZPay8f-87" value="7" style="text;html=1;strokeColor=#666666;align=center;verticalAlign=middle;whiteSpace=wrap;rounded=1;fontSize=16;fillColor=#f5f5f5;fontColor=#333333;" parent="1" vertex="1">
          <mxGeometry x="445" y="130" width="30" height="20" as="geometry" />
        </mxCell>
        <mxCell id="ImCiJTd56db0JIZPay8f-90" value="7" style="text;html=1;strokeColor=#666666;align=center;verticalAlign=middle;whiteSpace=wrap;rounded=1;fontSize=16;fillColor=#f5f5f5;fontColor=#333333;" parent="1" vertex="1">
          <mxGeometry x="790" y="580" width="30" height="20" as="geometry" />
        </mxCell>
        <mxCell id="ImCiJTd56db0JIZPay8f-91" value="&lt;span style=&quot;font-size: 11px&quot;&gt;用户分析平台：使用自研平台，基于H5+JAVA+ORACLE，同时可集成FINEBI，提供平台的自助分析能力&lt;/span&gt;" style="text;html=1;strokeColor=none;fillColor=none;align=left;verticalAlign=middle;whiteSpace=wrap;rounded=0;fontSize=10;fontColor=#000000;" parent="1" vertex="1">
          <mxGeometry x="835" y="570" width="250" height="60" as="geometry" />
        </mxCell>
        <mxCell id="pWo2v8w9QPyYrxRXLK9G-1" value="" style="shape=singleArrow;direction=north;whiteSpace=wrap;html=1;fontSize=16;fillColor=#dae8fc;strokeColor=#6c8ebf;" parent="1" vertex="1">
          <mxGeometry x="354" y="280" width="60" height="50" as="geometry" />
        </mxCell>
        <mxCell id="pWo2v8w9QPyYrxRXLK9G-4" value="5" style="text;html=1;strokeColor=#666666;align=center;verticalAlign=middle;whiteSpace=wrap;rounded=1;fontSize=16;fillColor=#f5f5f5;fontColor=#333333;" parent="1" vertex="1">
          <mxGeometry x="660" y="625" width="30" height="20" as="geometry" />
        </mxCell>
      </root>
    </mxGraphModel>
  </diagram>
</mxfile>
